<?xml version="1.0" encoding="UTF-8"?>
<svg
	xmlns:svg="http://www.w3.org/2000/svg"
	xmlns="http://www.w3.org/2000/svg"
	version="1.1"
	height="512"
	width="512"
	viewBox="0 0 512 512"
	id="coin">
	<g>
		<path id="path837" fill="#C4C9CF" d="M 256 25.599609 C 129.02652 25.599609 25.599609 129.02642 25.599609 256 C 25.599609 382.97358 129.02652 486.40039 256 486.40039 C 382.97348 486.40039 486.40039 382.97358 486.40039 256 C 486.40039 129.02642 382.97348 25.599609 256 25.599609 z M 256 71.679688 C 358.07004 71.679687 440.32031 153.92989 440.32031 256 C 440.32031 358.07011 358.07004 440.32031 256 440.32031 C 153.92996 440.32031 71.679688 358.07011 71.679688 256 C 71.679688 153.92989 153.92996 71.679687 256 71.679688 z M 255.99219 117.75977 C 228.54134 117.75977 203.69132 135.47922 187.375 162.67773 C 180.73682 173.73992 175.51934 185.79759 171.58008 198.40039 L 163.83984 198.40039 A 23.040001 23.040001 0 0 0 140.80078 221.43945 A 23.040001 23.040001 0 0 0 163.24023 244.47266 C 162.79819 252.14658 162.79819 259.85342 163.24023 267.52734 A 23.040001 23.040001 0 0 0 140.80078 290.56055 A 23.040001 23.040001 0 0 0 163.83984 313.59961 L 171.58008 313.59961 C 175.51961 326.20327 180.73814 338.26141 187.37695 349.32422 A 23.042305 23.042305 0 0 0 187.37891 349.33008 C 203.70724 376.5254 228.55696 394.24023 256.00781 394.24023 C 283.45866 394.24023 308.30868 376.52078 324.625 349.32227 A 23.040001 23.040001 0 0 0 316.7207 317.71094 A 23.040001 23.040001 0 0 0 285.10938 325.61719 C 274.44586 343.39275 263.92912 348.16016 256.00781 348.16016 C 248.08724 348.16016 237.56219 343.38797 226.88867 325.61328 C 224.69174 321.95235 222.778 317.87794 221.0332 313.59961 L 256 313.59961 A 23.040001 23.040001 0 0 0 279.03906 290.56055 A 23.040001 23.040001 0 0 0 256 267.51953 L 211.26758 267.51953 C 210.79573 259.86837 210.79573 252.13163 211.26758 244.48047 L 256 244.48047 A 23.040001 23.040001 0 0 0 279.03906 221.43945 A 23.040001 23.040001 0 0 0 256 198.40039 L 221.0332 198.40039 C 222.778 194.12206 224.69174 190.04765 226.88867 186.38672 A 23.042305 23.042305 0 0 0 226.89062 186.38281 C 237.55414 168.60725 248.07088 163.83984 255.99219 163.83984 C 263.9135 163.83984 274.44069 168.61187 285.11523 186.39062 A 23.040001 23.040001 0 0 0 316.72852 194.2832 A 23.040001 23.040001 0 0 0 324.62109 162.66992 C 308.29276 135.4746 283.44304 117.75977 255.99219 117.75977 z " />
	</g>
</svg>
