<?xml version="1.0" encoding="UTF-8"?>
<svg
	xmlns:svg="http://www.w3.org/2000/svg"
	xmlns="http://www.w3.org/2000/svg"
	version="1.1"
	height="512"
	width="512"
	viewBox="0 0 512 512"
	id="house">
	<g>
		<path id="path14" fill="#C4C9CF" d="m 256.67546,25.609486 a 23.042652,23.041806 0 0 0 -16.96525,6.749837 L 79.372775,192.73587 a 23.040348,23.039503 0 0 0 -0.270033,0.27003 23.040348,23.039503 0 0 0 -0.494906,0.44996 23.040348,23.039503 0 0 0 -0.179715,0.1797 23.040348,23.039503 0 0 0 -0.225795,0.2258 23.040348,23.039503 0 0 0 -0.675083,0.71998 l -45.180648,45.13399 a 23.040348,23.039503 0 0 0 0,32.57929 23.040348,23.039503 0 0 0 32.580504,0 l 6.750108,-6.74987 v 174.77624 c 0,25.17585 20.903932,46.07901 46.080693,46.07901 h 69.12105 138.24209 69.12104 c 25.17676,0 46.0807,-20.90316 46.0807,-46.07901 V 265.54475 l 6.7501,6.74987 a 23.040348,23.039503 0 0 0 32.58048,0 23.040348,23.039503 0 0 0 0,-32.57929 l -45.18021,-45.13404 a 23.040348,23.039503 0 0 0 -0.44997,-0.49489 23.040348,23.039503 0 0 0 -0.67509,-0.67506 23.040348,23.039503 0 0 0 -0.72001,-0.67505 L 272.29069,32.359323 a 23.042652,23.041806 0 0 0 -15.61523,-6.749837 z m -0.67508,55.618788 138.24209,138.237016 v 220.85524 h -69.12104 v -92.15801 c 0,-25.17584 -20.90393,-46.07901 -46.0807,-46.07901 h -46.0807 c -25.17676,0 -46.08069,20.90317 -46.08069,46.07901 v 92.15801 H 117.75829 V 219.46529 Z M 232.9601,348.16252 h 46.0807 v 92.15801 h -46.0807 z"/>
	</g>
</svg>
