<?xml version="1.0" encoding="iso-8859-1"?>
<!-- Generator: Adobe Illustrator 19.0.0, SVG Export Plug-In . SVG Version: 6.00 Build 0)  -->
<svg version="1.1" id="Layer_1" xmlns="http://www.w3.org/2000/svg" xmlns:xlink="http://www.w3.org/1999/xlink" x="0px" y="0px"
	 viewBox="0 0 512 512" style="enable-background:new 0 0 512 512;" xml:space="preserve">
<g>
	<g>
		<path d="M506.196,218.067c-0.489-0.228-49.174-22.837-120.446-71.424C315.218,98.556,266.663,33.023,266.174,32.371
			c-2-2.718-5.033-4.38-8.392-4.522c-3.337-0.294-6.576,1.239-8.793,3.772c-0.728,0.826-72.685,82.532-120.326,115.022
			C80.38,179.567,7.337,217.969,6.609,218.349C2.967,220.273,0,224.067,0,228.186v89.043c0,4.022,2.859,7.728,6.37,9.696
			c1.695,0.956,3.924,1.435,5.804,1.435c2,0,4.174-0.543,5.946-1.62c0.685-0.413,68.717-41.761,134.424-89.554
			c50.739-36.891,88.978-75.652,105-92.837c17.609,18.174,60.348,60.674,104.587,92.837
			c56.011,40.739,133.468,89.011,134.239,89.489c3.424,2.131,7.049,2.239,10.593,0.283c3.533-1.956,5.038-5.685,5.038-9.728v-89.043
			C512,223.828,510.152,219.871,506.196,218.067z M489.739,297.045c-25.043-16.478-75.652-49.098-115.196-77.859
			c-54.772-39.837-108.804-98.163-109.348-98.75c-2.152-2.326-5.402-3.565-8.163-3.554c-3.163,0.054-6.065,1.446-8.13,3.837
			c-0.446,0.511-45.772,51.685-110.098,98.467c-45.337,32.968-91.5,62.848-116.543,78.033V234.86
			c19.478-9.978,76.554-41.38,118.272-69.826c40.206-27.413,94.728-85.348,115.935-108.728
			c17.217,21.261,59.13,69.804,116.217,108.728c58.62,39.967,103.141,62.391,117.054,70.163V297.045z"/>
	</g>
</g>
<g>
	<g>
		<path d="M506.196,373.893c-0.489-0.228-49.174-22.837-120.446-71.424c-70.532-48.087-119.087-113.619-119.576-114.272
			c-2-2.717-5.033-4.38-8.392-4.522c-3.337-0.283-6.576,1.239-8.793,3.772c-0.728,0.826-72.685,82.532-120.326,115.022
			C80.38,335.393,7.337,373.795,6.609,374.175C2.967,376.099,0,379.893,0,384.012v89.044c0,4.022,2.859,7.728,6.37,9.696
			c1.695,0.956,3.924,1.435,5.804,1.435c2,0,4.174-0.543,5.946-1.62c0.685-0.413,68.717-41.761,134.424-89.554
			c50.739-36.891,88.978-75.652,105-92.837c17.609,18.174,60.348,60.674,104.587,92.837
			c56.011,40.739,133.468,89.011,134.239,89.489c3.424,2.141,7.049,2.239,10.593,0.283c3.533-1.956,5.038-5.685,5.038-9.728v-89.044
			C512,379.654,510.152,375.697,506.196,373.893z M489.739,452.871c-25.043-16.478-75.652-49.098-115.196-77.859
			c-54.772-39.837-108.804-98.163-109.348-98.75c-2.152-2.315-5.402-3.359-8.163-3.554c-3.163,0.054-6.065,1.446-8.13,3.837
			c-0.446,0.511-45.772,51.685-110.098,98.467c-45.337,32.968-91.5,62.848-116.543,78.033v-62.359
			c19.478-9.978,76.554-41.38,118.272-69.826c40.206-27.413,94.728-85.348,115.935-108.728
			c17.217,21.261,59.13,69.804,116.217,108.728c58.62,39.967,103.141,62.391,117.054,70.163V452.871z"/>
	</g>
</g>
<g>
</g>
<g>
</g>
<g>
</g>
<g>
</g>
<g>
</g>
<g>
</g>
<g>
</g>
<g>
</g>
<g>
</g>
<g>
</g>
<g>
</g>
<g>
</g>
<g>
</g>
<g>
</g>
<g>
</g>
</svg>
