<?xml version="1.0" encoding="iso-8859-1"?>
<!-- Generator: Adobe Illustrator 19.0.0, SVG Export Plug-In . SVG Version: 6.00 Build 0)  -->
<svg version="1.1" id="Layer_1" xmlns="http://www.w3.org/2000/svg" xmlns:xlink="http://www.w3.org/1999/xlink" x="0px" y="0px"
	 viewBox="0 0 512 512" style="enable-background:new 0 0 512 512;" xml:space="preserve">
<g>
	<g>
		<path d="M509.232,326.354v-86.951c0-4.335-1.838-8.27-5.778-10.065c-0.487-0.227-48.908-22.714-119.789-71.038
			C313.519,110.473,265.222,45.295,264.741,44.646c-1.989-2.703-5.005-4.357-8.357-4.497c-3.373-0.249-6.535,1.232-8.746,3.751
			c-0.719,0.821-72.281,82.086-119.67,114.4C79.941,191.046,7.292,229.241,6.573,229.619C2.946,231.532,0,235.305,0,239.403v88.562
			c0,0.535,0.738,1.065,0.812,1.586l0.226,53.743c-0.011,3.795,2.097,7.33,5.303,9.362c5.081,3.232,126.033,79.222,249.638,79.222
			c123.6,0,245.138-75.989,250.219-79.222c3.195-2.033,5.803-5.557,5.803-9.341v-55.351C512,327.422,512,326.884,509.232,326.354z
			 M22.141,246.03c19.373-9.913,76.135-41.146,117.632-69.438c39.995-27.265,94.216-84.887,115.303-108.141
			c17.135,21.146,58.816,69.427,115.595,108.141c58.297,39.751,102.584,62.054,116.422,69.784v61.514
			c-24.908-16.389-75.238-48.832-114.573-77.438c-54.476-39.622-108.211-97.632-108.752-98.216c-2.135-2.303-4.481-3.351-8.13-3.535
			c-3.14,0.054-6.027,1.438-8.086,3.816c-0.443,0.508-45.525,51.405-109.503,97.935c-45.087,32.789-91,62.508-115.908,77.611V246.03
			z M478.288,327.643c-36.042,20.084-129.723,66.743-222.163,66.743c-92.309,0-186.077-46.665-222.155-66.749
			c23.891-15,71.412-45.516,117.837-79.284c50.459-36.692,88.46-75.243,104.395-92.335c17.508,18.076,59.994,60.346,103.989,92.335
			C400.864,277.935,452.861,311.487,478.288,327.643z M489.859,377.078c-24.908,14.259-129.884,72.659-233.165,72.659
			c-103.265,0-208.693-58.379-232.839-72.649l-0.092-29.784c38.146,21.384,135.015,69.222,233.069,69.222
			c98.016,0,194.281-47.805,233.027-69.189V377.078z"/>
	</g>
</g>
<g>
</g>
<g>
</g>
<g>
</g>
<g>
</g>
<g>
</g>
<g>
</g>
<g>
</g>
<g>
</g>
<g>
</g>
<g>
</g>
<g>
</g>
<g>
</g>
<g>
</g>
<g>
</g>
<g>
</g>
</svg>
