<?xml version="1.0" encoding="iso-8859-1"?>
<!-- Generator: Adobe Illustrator 19.0.0, SVG Export Plug-In . SVG Version: 6.00 Build 0)  -->
<svg version="1.1" id="Layer_1" xmlns="http://www.w3.org/2000/svg" xmlns:xlink="http://www.w3.org/1999/xlink" x="0px" y="0px"
	 viewBox="0 0 512 512" style="enable-background:new 0 0 512 512;" xml:space="preserve">
<g>
	<g>
		<path d="M506.19,295.974c-0.489-0.228-49.174-22.837-120.44-71.424c-70.527-48.087-119.087-113.619-119.571-114.272
			c-2-2.717-5.033-4.38-8.402-4.522c-3.326-0.228-6.571,1.239-8.794,3.772c-0.723,0.826-72.674,82.532-120.321,115.022
			C80.375,257.473,7.332,295.876,6.609,296.256C2.962,298.18,0,301.974,0,306.093v89.043c0,4.022,2.864,7.728,6.37,9.696
			c1.695,0.956,3.924,1.435,5.804,1.435c2.005,0,4.18-0.543,5.951-1.619c0.679-0.413,68.712-41.761,134.418-89.554
			c50.734-36.891,88.984-75.652,105.005-92.837c17.603,18.174,60.343,60.674,104.576,92.837
			c56.016,40.739,133.467,89.011,134.244,89.489c3.435,2.131,7.071,2.239,10.593,0.283c3.538-1.956,5.038-5.685,5.038-9.728v-89.043
			C512,301.735,510.152,297.778,506.19,295.974z M489.739,374.952c-25.043-16.478-75.647-49.098-115.196-77.859
			c-54.772-39.837-108.799-98.163-109.343-98.75c-2.146-2.315-4.63-3.337-8.174-3.554c-3.157,0.054-6.06,1.446-8.13,3.837
			c-0.446,0.511-45.772,51.685-110.098,98.467c-45.332,32.967-91.495,62.848-116.538,78.033v-62.37
			c19.478-9.967,76.549-41.37,118.272-69.815c40.212-27.413,94.728-85.348,115.929-108.728
			c17.228,21.261,59.136,69.804,116.223,108.728c58.614,39.967,103.141,62.391,117.054,70.163V374.952z"/>
	</g>
</g>
<g>
</g>
<g>
</g>
<g>
</g>
<g>
</g>
<g>
</g>
<g>
</g>
<g>
</g>
<g>
</g>
<g>
</g>
<g>
</g>
<g>
</g>
<g>
</g>
<g>
</g>
<g>
</g>
<g>
</g>
</svg>
