<?xml version="1.0" encoding="iso-8859-1"?>
<!-- Generator: Adobe Illustrator 19.0.0, SVG Export Plug-In . SVG Version: 6.00 Build 0)  -->
<svg version="1.1" id="Layer_1" xmlns="http://www.w3.org/2000/svg" xmlns:xlink="http://www.w3.org/1999/xlink" x="0px" y="0px"
	 viewBox="0 0 512 512" style="enable-background:new 0 0 512 512;" xml:space="preserve">
<g>
	<g>
		<path d="M256,0C114.843,0,0,114.843,0,256s114.843,256,256,256s256-114.843,256-256S397.157,0,256,0z M256,493.037
			C125.296,493.037,18.963,386.704,18.963,256S125.296,18.963,256,18.963S493.037,125.296,493.037,256S386.704,493.037,256,493.037z
			"/>
	</g>
</g>
<g>
	<g>
		<path d="M427.333,209.815c-1.12-3.435-4.083-5.935-7.657-6.454l-107.222-15.584L264.5,90.62c-3.185-6.482-13.815-6.482-17,0
			l-47.954,97.157L92.324,203.361c-3.574,0.518-6.537,3.018-7.657,6.454c-1.111,3.426-0.185,7.195,2.398,9.713l77.592,75.63
			l-18.315,106.796c-0.611,3.556,0.852,7.148,3.768,9.269c2.935,2.13,6.806,2.407,9.991,0.722L256,361.528l95.898,50.417
			c1.389,0.732,2.907,1.093,4.417,1.093c1.963,0,3.917-0.611,5.574-1.815c2.917-2.121,4.38-5.713,3.768-9.269l-18.315-106.796
			l77.592-75.63C427.519,217.009,428.444,213.241,427.333,209.815z M330.537,285.065c-2.231,2.176-3.25,5.315-2.722,8.389
			l15.907,92.768l-83.305-43.796c-1.389-0.732-2.898-1.093-4.417-1.093c-1.518,0-3.028,0.361-4.417,1.093l-83.305,43.796
			l15.907-92.768c0.528-3.074-0.491-6.213-2.722-8.389l-67.398-65.704l93.139-13.537c3.093-0.444,5.759-2.389,7.139-5.185
			L256,116.241l41.657,84.398c1.38,2.796,4.047,4.741,7.139,5.185l93.139,13.537L330.537,285.065z"/>
	</g>
</g>
<g>
</g>
<g>
</g>
<g>
</g>
<g>
</g>
<g>
</g>
<g>
</g>
<g>
</g>
<g>
</g>
<g>
</g>
<g>
</g>
<g>
</g>
<g>
</g>
<g>
</g>
<g>
</g>
<g>
</g>
</svg>
