<?xml version="1.0" encoding="iso-8859-1"?>
<!-- Generator: Adobe Illustrator 19.0.0, SVG Export Plug-In . SVG Version: 6.00 Build 0)  -->
<svg version="1.1" id="Capa_1" xmlns="http://www.w3.org/2000/svg" xmlns:xlink="http://www.w3.org/1999/xlink" x="0px" y="0px"
	 viewBox="0 0 664.885 664.885" style="enable-background:new 0 0 664.885 664.885;" xml:space="preserve">
<g>
	<path d="M664.885,187.012c0-49.988-40.668-90.658-90.656-90.658c-49.988,0-90.656,40.67-90.656,90.658
		c0,44.218,31.831,81.121,73.777,89.056l0.031,25.337c-18.787,6.886-32.232,24.954-32.232,46.101v63.822
		c0,21.136,13.431,39.195,32.208,46.09l0.015,12.961h-63.68c-20.911,0-38.799,13.151-45.856,31.612l-27.068,0.033
		c-2.119-4.964-5.172-9.535-9.104-13.466l-31.288-31.293c33.392-38.177,53.657-88.115,53.657-142.7
		c0-119.664-97.354-217.02-217.018-217.02C97.354,97.547,0,194.901,0,314.565s97.354,217.018,217.016,217.018
		c33.992,0,66.177-7.863,94.85-21.854l39.313,39.311c8.077,8.079,18.82,12.527,30.244,12.527c11.424,0,22.165-4.45,30.24-12.527
		c3.537-3.537,6.333-7.604,8.41-11.995l27.801-0.035c7.079,18.413,24.943,31.523,45.821,31.523h72.578
		c27.062,0,49.078-22.016,49.078-49.078c0-17.461-9.172-32.81-22.944-41.513l-0.026-21.033c18.1-7.234,30.927-24.934,30.927-45.584
		v-63.822c0-20.641-12.816-38.334-30.903-45.575l-0.033-26.087C633.698,267.413,664.885,230.788,664.885,187.012z M170.816,200.27
		c-34.594,15.073-59.742,46.072-67.265,82.923c-1.556,7.615-2.344,15.46-2.344,23.316c0,9.671-7.841,17.511-17.511,17.511
		c-9.673,0-17.511-7.841-17.511-17.511c0-10.207,1.027-20.409,3.054-30.325c9.806-48.014,42.55-88.395,87.589-108.021
		c8.867-3.863,19.186,0.193,23.049,9.058C183.738,186.089,179.682,196.409,170.816,200.27z M366.926,515.26l-24.021-24.021
		c4.242-3.032,8.373-6.212,12.38-9.533l21.749,21.749C372.057,505.569,368.281,509.932,366.926,515.26z M496.118,533.509
		c4.306-3.194,7.107-8.303,7.101-14.079c-0.007-5.757-2.804-10.848-7.096-14.033h61.292l0.018,14.707
		c0.007,5.387,2.449,10.198,6.278,13.405H496.118L496.118,533.509z M588.284,407.062c-3.213-3.859-8.051-6.317-13.462-6.317
		c-0.007,0-0.015,0-0.022,0c-6.125,0.007-11.503,3.163-14.626,7.928v-55.062c3.106,4.886,8.554,8.134,14.771,8.134
		c0.007,0,0.015,0,0.022,0c5.341-0.007,10.111-2.41,13.32-6.184v51.501H588.284z M592.099,239.684
		c-1.311-8.377-8.537-14.788-17.277-14.788c-0.007,0-0.015,0-0.022,0c-8.867,0.011-16.169,6.617-17.314,15.169
		c-22.52-7.123-38.89-28.211-38.89-53.053c0-30.678,24.958-55.636,55.633-55.636s55.634,24.958,55.634,55.636
		C629.863,211.438,614.032,232.222,592.099,239.684z"/>
</g>
<g>
</g>
<g>
</g>
<g>
</g>
<g>
</g>
<g>
</g>
<g>
</g>
<g>
</g>
<g>
</g>
<g>
</g>
<g>
</g>
<g>
</g>
<g>
</g>
<g>
</g>
<g>
</g>
<g>
</g>
</svg>
