<svg id="Capa_1" enable-background="new 0 0 511.996 511.996" height="512" viewBox="0 0 511.996 511.996" width="512" xmlns="http://www.w3.org/2000/svg"><g><g><path d="m367.708 409.388c-1.714 2.434-3.045 5.001-4.024 7.635l-192.277-107.286c1.722-2.209 3.204-4.682 4.374-7.409 6.378-14.867.863-32.481-12.843-41.075-16.205-10.162-37.404-4.585-46.608 11.91-3.961 7.099-5.031 15.025-3.597 22.426 1.081 5.582-2.141 11.064-7.447 13.104-8.041 3.092-14.934 9.321-18.66 18.122-6.187 14.616-.885 31.859 12.407 40.534 16.269 10.618 37.83 5.101 47.134-11.573.846-1.515 1.558-3.069 2.144-4.646l192.277 107.286c-1.722 2.209-3.204 4.682-4.374 7.409-6.378 14.867-.863 32.48 12.843 41.075 16.205 10.162 37.404 4.585 46.608-11.909 3.961-7.098 5.03-15.023 3.598-22.424-1.067-5.515 2.024-11.055 7.278-13.043 7.05-2.667 13.232-7.74 17.193-14.838 9.225-16.534 2.786-37.564-14.464-45.978-14.49-7.067-32.281-2.502-41.562 10.68z" fill="#dfdfef"/></g><g><path d="m84.067 339.069c-.165 11.083 5.278 21.959 14.966 28.28 16.268 10.618 37.834 5.102 47.13-11.568.847-1.518 1.56-3.078 2.148-4.648l192.28 107.285c-1.725 2.21-3.212 4.679-4.379 7.406-6.373 14.863-.857 32.484 12.849 41.078 13.427 8.418 30.274 6.032 40.891-4.41-4.586 1.446-9.854.558-16.319-3.501-13.706-8.594-19.222-26.204-12.849-41.067.47-1.088.987-2.136 1.549-3.144 1.367-2.451.49-5.54-1.977-6.878l-213.539-115.745c-2.451-1.329-5.471-.383-6.826 2.053-.008.015-.017.03-.025.046-12.188 21.856-39.91 20.503-55.899 4.813z" fill="#cdd3e8"/></g><path d="m255.987 0c-77.866 0-140.989 54.471-140.989 121.665 0 46.694 30.485 87.242 75.216 107.638 9.95 4.537 5.82 14.817 5.82 23.124 0 11.189 9.07 20.259 20.259 20.259 8.104 0 15.089-4.761 18.326-11.637.591-1.256 2.326-1.256 2.917 0 3.237 6.876 10.223 11.637 18.326 11.637 8.231 0 15.305-4.913 18.472-11.964.55-1.224 2.324-1.224 2.874 0 3.167 7.051 10.24 11.964 18.471 11.964 11.189 0 20.259-9.07 20.259-20.259 0-8.153-4.19-18.558 5.819-23.124 44.731-20.395 75.217-60.943 75.217-107.638.001-67.194-63.121-121.665-140.987-121.665z" fill="#dfdfef"/><path d="m314.974 11.131c38.877 21.659 64.606 59.38 64.606 102.275 0 46.696-30.49 87.247-75.224 107.636-10.009 4.565-5.815 25.109-5.815 33.259 0 7.282-3.842 13.665-9.606 17.228 2.107.754 4.379 1.157 6.745 1.157 11.186 0 20.255-9.069 20.255-20.255 0-8.16-4.183-18.561 5.825-23.126 44.734-20.399 75.214-60.95 75.214-107.636 0-49.02-33.589-91.275-82-110.538z" fill="#cdd3e8"/><g fill="#435f6d"><ellipse cx="201.124" cy="121.821" rx="36.743" ry="36.715"/><ellipse cx="310.849" cy="121.821" rx="36.743" ry="36.715"/></g><g fill="#334c59"><path d="m237.87 121.824c0 20.276-16.454 36.708-36.75 36.708-7.736 0-14.925-2.396-20.844-6.486 2.717.641 5.536.981 8.449.981 20.296 0 36.75-16.433 36.75-36.719 0-12.539-6.29-23.612-15.896-30.222 16.217 3.822 28.291 18.375 28.291 35.738z"/><path d="m347.593 121.824c0 20.276-16.454 36.708-36.739 36.708-7.736 0-14.925-2.396-20.854-6.486 2.717.641 5.547.981 8.459.981 20.286 0 36.739-16.433 36.739-36.719 0-12.539-6.29-23.612-15.896-30.222 16.216 3.812 28.291 18.365 28.291 35.738z"/></g><path d="m252.001 160.655-10.434 15.457c-4.711 6.979-3.748 16.331 2.287 22.203 6.754 6.571 17.511 6.571 24.265 0 6.035-5.872 6.999-15.224 2.287-22.203l-10.434-15.457c-1.906-2.824-6.064-2.824-7.971 0z" fill="#435f6d"/><path d="m273.381 185.842c0 4.565-1.787 9.1-5.257 12.477-3.378 3.284-7.757 4.927-12.136 4.927s-8.759-1.642-12.136-4.927c-1.332-1.301-2.417-2.768-3.243-4.338 1.611.403 3.254.599 4.906.599 5.154 0 10.308-1.942 14.295-5.805 4.09-3.987 6.197-9.317 6.197-14.708 0-1.901-.258-3.801-.795-5.66l5.195 7.705c2.003 2.965 2.974 6.363 2.974 9.73z" fill="#334c59"/><g><path d="m144.288 409.388c1.714 2.434 3.045 5.001 4.024 7.635l192.277-107.286c-1.722-2.209-3.204-4.682-4.374-7.409-6.378-14.867-.863-32.481 12.843-41.075 16.205-10.162 37.404-4.585 46.608 11.91 3.961 7.099 5.031 15.025 3.597 22.426-1.081 5.582 2.141 11.064 7.447 13.104 8.041 3.092 14.934 9.321 18.66 18.122 6.187 14.616.885 31.859-12.407 40.534-16.269 10.618-37.83 5.101-47.134-11.573-.846-1.515-1.558-3.069-2.144-4.646l-192.277 107.286c1.722 2.209 3.204 4.682 4.374 7.409 6.378 14.867.863 32.48-12.843 41.075-16.205 10.162-37.404 4.585-46.608-11.909-3.961-7.098-5.03-15.023-3.598-22.424 1.067-5.515-2.024-11.055-7.278-13.043-7.05-2.667-13.232-7.74-17.193-14.838-9.225-16.534-2.786-37.564 14.464-45.978 14.49-7.067 32.282-2.502 41.562 10.68z" fill="#f0f2f7"/></g><g><path d="m427.93 339.069c.165 11.083-5.278 21.959-14.966 28.28-16.268 10.618-37.834 5.102-47.13-11.568-.847-1.518-1.56-3.078-2.148-4.648l-192.28 107.285c1.725 2.21 3.212 4.679 4.379 7.406 6.373 14.863.857 32.484-12.849 41.078-13.427 8.418-30.274 6.032-40.891-4.41 4.586 1.446 9.854.558 16.319-3.501 13.706-8.594 19.222-26.204 12.849-41.067-.47-1.088-.987-2.136-1.549-3.144-1.367-2.451-.49-5.54 1.977-6.878l213.539-115.743c2.451-1.329 5.471-.383 6.826 2.053.008.015.017.03.025.046 12.187 21.854 39.91 20.501 55.899 4.811z" fill="#e9e7f2"/></g></g></svg>