<?xml version="1.0" encoding="utf-8"?>
<svg
	xmlns="http://www.w3.org/2000/svg"
	xmlns:xlink="http://www.w3.org/1999/xlink"
	version="1.1"
	viewBox="0 0 500 500">
	<g>
		<path fill="#D7991D" d="M387.64,379.58C279.3,493.82,140.1,513.48,68.22,446.46c-25.74-23.99-41.91-49.31-49.93-75.64 c65.19,68.95,180.1,103.6,296.94,51.12C338.39,411.54,363,396.97,387.64,379.58z"/>
		<path fill="#F9C02D" d="M439.41,68.99c-2.99-3.49-6.13-6.96-9.42-10.45c-81.92-86.99-213.36-33.56-315.34,74.64 c-34.68,36.78-62.37,73.78-80.17,110.12c-21.5,43.89-28.61,86.87-16.2,127.53c65.19,68.95,180.1,103.6,296.94,51.12 c23.16-10.4,47.77-24.97,72.41-42.35c2.43-2.55,4.83-5.12,7.2-7.76C500.93,254.3,516.83,159.2,439.41,68.99z M390.13,135 c-13,50.05-52.48,110.98-110.09,163.13c-51.68,46.77-107.01,76.68-152.17,85.71c-35.9,7.26-65.37,1.3-81.42-19.75 c-24.2-31.75-11.88-89.77,26.54-149.8c19.16-30,44.84-60.48,75.73-88.44c62.73-56.78,130.85-88.67,179.6-88.67 c23.34,0,42.26,7.32,53.99,22.72c5.01,6.55,8.44,14.22,10.4,22.78C396.17,97.71,395.16,115.54,390.13,135z"/>
		<path fill="#D7991D" d="M390.13,135c-34.89-24.73-110.35,0.36-177.94,61.57c-72.06,65.25-108.72,147.61-84.32,187.27 c-35.9,7.26-65.37,1.3-81.42-19.75c-24.2-31.75-11.88-89.77,26.54-149.8c19.16-30,44.84-60.48,75.73-88.44 c62.73-56.78,130.85-88.67,179.6-88.67c23.34,0,42.26,7.32,53.99,22.72c5.01,6.55,8.44,14.22,10.4,22.78 C396.17,97.71,395.16,115.54,390.13,135z"/>
		<path fill="#F9C02D" d="M76.4,296.17c0.92-7.12-0.97-14.04-1.72-21.05c-1.49-13.99,4.3-25.56,17.14-30.7 c6.04-2.39,5.65-6.58,5.83-10.95c0.63-14.84,2.2-29.62,10.2-42.78c1.4-2.44,2.98-4.77,4.74-6.96c1.65-2.01,3.98-3.34,6.52-2.05 c3.13,1.54,3.2,4.48,2.21,7.34c-0.99,2.87-2.27,5.07-3.7,8.25c11.52,0.34,19.28-1.97,22.94-14.52 c3.54-12.04,13.62-18.91,26.8-18.31c7.4,0.35,8.71-4.96,10.79-9.56c4.63-10.31,10.44-20.67,21.65-23.16 c11.21-2.49,18.12-7.24,23.66-17.21c4.28-7.74,13.01-10.53,22.34-8.03c2.93,0.4,5.2,2.77,5.47,5.72c0.14,3.8-3.06,4.21-6,4.34 c-3.26,0.15-6.55,0.35-7.45,4.39c-0.45,1.77,0.27,3.62,1.8,4.61c3.49,2.37,5.85,0.22,8.23-2.13c2.38-2.34,5.28-4.69,8.23-1.83 c3.27,3.16,2.42,7.38-0.21,10.62c-6.09,7.44-13.9,9.66-22.63,5.24c-5.5-2.83-7.35-1.41-8.57,4.21c-1.01,5.21-3.32,10.08-6.73,14.14 c-6.39,7.12-13.62,8.36-20.1,1.49c-5.07-5.37-6.75-2.96-8.61,1.52c-2.84,7.22-5.27,14.52-7.91,21.91 c-5.69,15.7-13.17,18.65-26.77,9.61c-4.76-3.16-5.59-0.39-6.42,2.66c-1.77,6.81-3.09,13.71-4.63,20.6 c-4.21,19.78-14.01,23.92-31.37,12.48c-4.51,10.06-1.4,20.02-0.34,29.75c1.32,11.56,3.07,23.03,4.45,34.57 c1.19,9.74-1.47,18.31-9.03,24.78c-2.92,2.52-6.71,4.66-10.33,0.83c-3.62-3.83-0.73-6.26,1.94-8.86 c5.48-5.21,7.77-12.94,6.01-20.29c-1.57-7.98-7.33-11.34-15.13-8.71c-4.93,1.78-2.48,5.12-2.04,7.88 c1.74,9.73,4.06,19.43-0.52,29.04c-2.66,6.43-9.11,10.45-16.05,10c-7-0.28-11.8-4.38-14.11-11.09c-2.32-6.71,0.55-12.36,5.45-17.06 c4.29-4.1,8.79-4.02,13.41-0.76c-0.57,3.83-3.5,5.92-6.05,8.32c-1.55,1.49-2.9,3.18-1.68,5.52c0.81,1.62,2.6,2.5,4.38,2.16 c2.17-0.2,3.95-1.81,4.36-3.95C78.07,304.18,79,300.01,76.4,296.17L76.4,296.17z M130.93,214.08c-0.1-2.5,1.04-6.09-2.11-6.27 c-4.44-0.31-6.39,3.81-7.48,7.47c-0.86,2.9-0.02,6.38,3.24,6.61C129.82,222.3,129.74,217.36,130.93,214.08z M98.22,251.8 c-6.49,3.33-9.82,6.31-8.08,12.2c0.64,2.17,2.76,3.96,4.72,2.69C99.94,263.38,97.54,258.15,98.22,251.8z M167.36,184.32 c3.22,0.22,4.22-2.24,4.85-4.57c0.69-1.64-0.09-3.53-1.73-4.22c-0.42-0.17-0.86-0.26-1.31-0.25c-2.64-0.31-5.07,0.37-5.51,3.4 c-0.35,2.56,1.23,4.99,3.71,5.7L167.36,184.32z"/>
	</g>
</svg>
