<?xml version="1.0" encoding="UTF-8"?>
<svg
	xmlns:svg="http://www.w3.org/2000/svg"
	xmlns="http://www.w3.org/2000/svg"
	version="1.1"
	viewBox="0 0 512 512"
	preserveAspectRatio="xMidYMid meet"
	id="anchor">
	<g>
		<path id="path2" fill="#C4C9CF" d="M 111.07713,400.93008 A 204.06984,204.06984 0 0 0 230.39525,459.3089 V 256.00721 H 127.97626 v -51.2095 h 102.41899 v -55.5623 a 76.814243,76.814243 0 1 1 51.2095,0 v 55.5623 h 102.41899 v 51.2095 H 281.60475 V 459.3089 A 204.06984,204.06984 0 0 0 400.92287,400.93008 L 364.56413,364.57133 H 509.487 l -72.46143,72.46144 a 256.04748,256.04748 0 0 1 -362.051134,0 L 2.513,364.57133 H 147.43587 Z M 256,102.37872 a 25.604748,25.604748 0 1 0 0,-51.209499 25.604748,25.604748 0 0 0 0,51.209499 z" />
	</g>
</svg>
