<?xml version="1.0" encoding="UTF-8"?>
<svg
	xmlns:svg="http://www.w3.org/2000/svg"
	xmlns="http://www.w3.org/2000/svg"
	version="1.1"
	viewBox="0 0 512 512"
	preserveAspectRatio="xMidYMid meet"
	id="boat">
	<g>
		<path id="path1" fill="#00bcd1" d="M 260,398.859 H 42.6 c -5.833,0 -11.138,3.382 -13.599,8.671 -2.461,5.289 -1.634,11.524 2.123,15.988 l 69.972,83.14 c 2.85,3.387 7.05,5.342 11.477,5.342 H 260 Z" />
		<path id="path2" fill="#0082ca" d="M 468.793,398.859 H 260 V 512 h 138.82 c 4.426,0 8.626,-1.955 11.477,-5.341 l 69.973,-83.141 c 3.756,-4.464 4.584,-10.699 2.123,-15.988 -2.463,-5.289 -7.766,-8.671 -13.6,-8.671 z" />
		<path id="path3" fill="#004175" d="m 260,398.859 h -15 v -43.475 h 15 z" />
		<path id="path4" fill="#001a38" d="m 260,355.384 v 43.475 h 15 v -43.475 z" />
		<path id="path5" fill="#ffb500" d="M 480.879,331.349 260,39.225667 V 355.384 h 208.906 c 5.689,0 10.89,-3.219 13.427,-8.313 2.536,-5.092 1.973,-11.181 -1.454,-15.722 z" />
		<path id="path6" fill="#fed100" d="m 244.342,0 c -27.153,0.046 -53.914,14.169 -79.542,41.98 -20.972,22.759 -40.703,54.017 -58.644,92.904 -31.239,67.71 -53.052,152.262 -53.031,205.575 0.003,8.256 6.744,14.925 15,14.925 H 260 V 15 C 260.001,6.677 252.665,-0.014 244.342,0 Z" />
	</g>
</svg>
