<?xml version="1.0" encoding="UTF-8"?>
<svg
	xmlns:svg="http://www.w3.org/2000/svg"
	xmlns="http://www.w3.org/2000/svg"
	version="1.1"
	viewBox="0 0 512 512"
	preserveAspectRatio="xMidYMid meet"
	id="forteress">
	<g>
		<path id="path2" fill="#C4C9CF" d="m 243.60496,0.33637328 h -8.24108 A 5.01631,5.01631 0 0 0 230.34757,5.3526833 V 60.173786 h -45.8634 V 5.3526833 A 5.01631,5.01631 0 0 0 180.90109,0.33637328 H 140.77061 A 5.01631,5.01631 0 0 0 135.7543,5.3526833 V 60.173786 H 91.682431 V 5.3526833 A 5.01631,5.01631 0 0 0 86.666121,0.33637328 H 46.535641 A 5.01631,5.01631 0 0 0 41.161023,5.3526833 V 148.67583 a 22.573395,22.573395 0 0 0 22.573395,22.57339 H 97.057049 L 41.161023,485.12691 a 23.648319,23.648319 0 0 0 5.01631,18.63201 A 23.290011,23.290011 0 0 0 63.734418,512 H 446.76552 a 23.290011,23.290011 0 0 0 17.55709,-8.24108 23.648319,23.648319 0 0 0 5.01631,-18.63201 l -56.25434,-314.5943 h 33.32263 a 22.573395,22.573395 0 0 0 24.72325,-22.5734 V 4.6360676 A 5.01631,5.01631 0 0 0 464.32261,0.33637328 H 424.19213 A 5.01631,5.01631 0 0 0 419.17582,5.3526833 V 60.173786 H 375.10395 V 5.3526833 A 5.3746179,5.3746179 0 0 0 369.72933,0.33637328 H 329.95716 A 5.01631,5.01631 0 0 0 324.94085,5.3526833 V 60.173786 H 280.51067 V 5.3526833 a 5.01631,5.01631 0 0 0 -5.01631,-5.01631002 h -8.24108 M 309.89192,284.83281 v 98.89297 H 202.39956 v -98.89297 a 54.462795,54.462795 0 1 1 107.49236,0 z" />
	</g>
</svg>
