<?xml version="1.0" encoding="UTF-8"?>
<svg
	xmlns:svg="http://www.w3.org/2000/svg"
	xmlns="http://www.w3.org/2000/svg"
	version="1.1"
	viewBox="0 0 512 512"
	preserveAspectRatio="xMidYMid meet"
	id="shield">
	<g>
		<path id="path2" fill="#C4C9CF" d="m 351.59055,211.79998 a 16.750682,16.750682 0 0 0 -23.67429,-23.6743 l -99.83406,99.83405 -43.99846,-43.99844 a 16.750682,16.750682 0 0 0 -23.6743,23.67429 l 55.83561,55.83561 a 16.750682,16.750682 0 0 0 23.67429,0 z" />
		<path id="path4" fill="#C4C9CF" d="m 268.06049,7.907298 a 39.084925,39.084925 0 0 0 -24.12098,0 L 59.682009,67.651398 A 39.084925,39.084925 0 0 0 32.657575,104.81558 v 112.20723 c 0,138.24898 84.200095,239.08808 209.964225,286.54834 8.62101,3.23847 18.1354,3.23847 26.75641,0 C 395.12,456.08855 479.34242,355.27179 479.34242,217.02281 V 104.81558 c 0,-16.951692 -10.94376,-31.937969 -27.02442,-37.164182 z m -13.78022,31.848631 a 5.5835608,5.5835608 0 0 1 3.43947,0 l 184.25749,59.766434 a 5.5835608,5.5835608 0 0 1 3.86384,5.293217 v 112.20723 c 0,121.96731 -73.25631,211.79563 -188.27767,255.19107 a 4.4668485,4.4668485 0 0 1 -3.12679,0 C 139.41525,428.81844 66.158939,338.96778 66.158939,217.02281 V 104.81558 c 0,-2.4121 1.541062,-4.53385 3.863825,-5.293217 z" fill-rule="evenodd" />
	</g>
</svg>
