<?xml version="1.0" encoding="UTF-8"?>
<svg
	xmlns:svg="http://www.w3.org/2000/svg"
	xmlns="http://www.w3.org/2000/svg"
	version="1.1"
	viewBox="0 0 512 512"
	preserveAspectRatio="xMidYMid meet"
	id="smiley">
	<g>
		<path id="path856" fill="#C4C9CF" d="M 256 51.199219 C 143.13465 51.199219 51.199219 143.13456 51.199219 256 C 51.199219 368.86544 143.13465 460.80078 256 460.80078 C 368.86535 460.80078 460.80078 368.86544 460.80078 256 C 460.80078 143.13456 368.86535 51.199219 256 51.199219 z M 256 92.160156 C 346.72897 92.160156 419.83984 165.27098 419.83984 256 C 419.83984 346.72902 346.72897 419.83984 256 419.83984 C 165.27103 419.83984 92.160156 346.72902 92.160156 256 C 92.160156 165.27098 165.27103 92.160156 256 92.160156 z M 194.49023 195.25586 A 20 20 0 0 0 174.69336 215.25586 A 20 20 0 0 0 194.69336 235.25586 A 20 20 0 0 0 214.69336 215.25586 A 20 20 0 0 0 194.69336 195.25586 A 20 20 0 0 0 194.49023 195.25586 z M 317.20703 195.25586 A 20 20 0 0 0 297.41016 215.25586 A 20 20 0 0 0 317.41016 235.25586 A 20 20 0 0 0 337.41016 215.25586 A 20 20 0 0 0 317.41016 195.25586 A 20 20 0 0 0 317.20703 195.25586 z M 198.18164 293.4375 A 20.48 20.48 0 0 0 183.59961 299.4375 A 20.48 20.48 0 0 0 183.60352 328.40039 C 223.41932 368.20417 288.58068 368.20417 328.39648 328.40039 A 20.48 20.48 0 0 0 328.40039 299.4375 A 20.48 20.48 0 0 0 299.4375 299.43359 C 275.27378 323.59001 236.72622 323.59001 212.5625 299.43359 A 20.48 20.48 0 0 0 198.18164 293.4375 z "/>
	</g>
</svg>
