<?xml version="1.0" encoding="UTF-8"?>
<svg
	xmlns:svg="http://www.w3.org/2000/svg"
	xmlns="http://www.w3.org/2000/svg"
	version="1.1"
	viewBox="0 0 512 512"
	preserveAspectRatio="xMidYMid meet"
	id="sword">
	<g>
		<g>
			<g>
				<path id="path2" d="m 448.238,448.252 c -7.053,7.053 -11.061,15.916 -12.332,25.097 L 329.975,367.417 367.404,329.988 473.335,435.919 c -9.172,1.28 -18.043,5.279 -25.097,12.333 z" fill="#6c4127" />
				<rect id="rect6" height="35.29166" width="52.938492" fill="#8e5f46" transform="rotate(-45)" y="546.9975" x="-26.496016" />
			</g>
			<g>
				<circle id="circle4" r="44.111" cy="467.875" cx="467.862" fill="#ebba16" />
				<path id="path8" d="m 461.647,482.97 c 2.26,0 4.52,-0.865 6.241,-2.586 l 12.473,-12.482 c 3.443,-3.452 3.443,-9.031 0,-12.482 -3.452,-3.46 -9.039,-3.443 -12.482,0 l -12.473,12.482 c -3.443,3.452 -3.443,9.031 0,12.482 1.722,1.721 3.982,2.586 6.241,2.586 z" fill="#ffffff" />
			</g>
			<g>
				<polygon fill="#afb6bb" points="74.858,12.487 0,0.013 12.482,74.871 211.271,273.668 273.655,211.284 " id="polygon10" />
				<rect x="-44.097439" y="-473.99091" transform="rotate(135)" fill="#afb6bb" width="88.221153" height="86.96817" id="rect12" />
			</g>
			<polygon fill="#ebba16" points="405.504,280.748 368.075,280.748 280.735,368.088 280.735,405.517 318.164,405.517 405.504,318.177 " id="polygon34" />
			<g>
				<path id="path16" d="m 224.812,233.653 c -2.26,0 -4.52,-0.865 -6.241,-2.586 L 99.69,112.185 c -3.452,-3.452 -3.452,-9.031 0,-12.482 3.443,-3.452 9.031,-3.452 12.482,0 l 118.881,118.881 c 3.452,3.452 3.452,9.031 0,12.482 -1.721,1.722 -3.99,2.587 -6.241,2.587 z" fill="#839594" />
				<path id="path36" d="m 79.448,88.289 c -2.26,0 -4.52,-0.865 -6.241,-2.586 L 46.724,59.22 c -3.452,-3.452 -3.452,-9.031 0,-12.482 3.443,-3.452 9.039,-3.452 12.482,0 L 85.689,73.22 c 3.452,3.452 3.452,9.031 0,12.482 -1.721,1.722 -3.981,2.587 -6.241,2.587 z" fill="#839594" />
			</g>
		</g>
		<g>
			<polygon fill="#e7eced" points="512,0.013 499.527,74.871 203.335,371.072 140.941,308.679 437.142,12.487 " id="polygon22" />
			<g>
				<path fill="#afb6bb" d="m 187.595,333.246 c -2.26,0 -4.52,-0.865 -6.241,-2.586 -3.452,-3.452 -3.452,-9.031 0,-12.482 L 399.828,99.703 c 3.443,-3.452 9.031,-3.452 12.482,0 3.452,3.452 3.452,9.031 0,12.482 L 193.836,330.659 c -1.721,1.722 -3.981,2.587 -6.241,2.587 z" id="path24" />
				<path fill="#afb6bb" d="m 432.552,88.289 c -2.26,0 -4.52,-0.865 -6.241,-2.586 -3.452,-3.452 -3.452,-9.031 0,-12.482 l 26.483,-26.483 c 3.443,-3.452 9.039,-3.452 12.482,0 3.452,3.452 3.452,9.031 0,12.482 l -26.483,26.483 c -1.722,1.721 -3.981,2.586 -6.241,2.586 z" id="path26" />
			</g>
			<g>
				<path id="path18" d="m 63.762,448.252 c 7.053,7.053 11.061,15.916 12.332,25.097 L 182.025,367.418 144.596,329.989 38.665,435.919 c 9.172,1.28 18.043,5.279 25.097,12.333 z" fill="#6c4127" />
				<rect id="rect30" height="35.29166" width="52.938492" fill="#8e5f46" transform="rotate(-135)" y="-220.26292" x="-388.52048" />
			</g>
			<g>
				<circle id="circle20" r="44.111" cy="467.875" cx="44.111" fill="#ebba16" />
				<path id="path32" d="m 50.353,482.97 c -2.26,0 -4.52,-0.865 -6.241,-2.586 L 31.639,467.902 c -3.443,-3.452 -3.443,-9.031 0,-12.482 3.452,-3.46 9.039,-3.443 12.482,0 l 12.473,12.482 c 3.443,3.452 3.443,9.031 0,12.482 -1.722,1.721 -3.982,2.586 -6.241,2.586 z" fill="#ffffff" />
			</g>
			<polygon fill="#ebba16" points="106.496,280.748 143.925,280.748 231.265,368.088 231.265,405.517 193.836,405.517 106.496,318.177 " id="polygon38" />
		</g>
	</g>
</svg>
