<?xml version="1.0" encoding="UTF-8"?>
<svg
	xmlns:svg="http://www.w3.org/2000/svg"
	xmlns="http://www.w3.org/2000/svg"
	version="1.1"
	viewBox="0 0 512 512"
	preserveAspectRatio="xMidYMid meet"
	id="tower">
	<g>
		<path id="path1" fill="#C4C9CF" d="M 128,165.33333 C 128,144.72533 144.72533,128 165.33333,128 H 346.66667 C 367.27467,128 384,144.72533 384,165.33333 V 346.66667 A 37.333333,37.333333 0 0 1 346.66667,384 H 165.33333 A 37.333333,37.333333 0 0 1 128,346.66667 Z M 165.33333,160 A 5.3333333,5.3333333 0 0 0 160,165.33333 v 181.33334 c 0,2.944 2.38933,5.33333 5.33333,5.33333 H 346.66667 A 5.3333333,5.3333333 0 0 0 352,346.66667 V 165.33333 A 5.3333333,5.3333333 0 0 0 346.66667,160 Z" />
	</g>
</svg>
